<mxfile host="app.diagrams.net" modified="2022-09-30T03:59:56.633Z" agent="5.0 (Macintosh; Intel Mac OS X 10_15_7) AppleWebKit/537.36 (KHTML, like Gecko) Chrome/105.0.0.0 Safari/537.36" etag="57IHTytstFv_7GFnwud_" version="20.3.7" type="github">
  <diagram name="Page-1" id="b520641d-4fe3-3701-9064-5fc419738815">
    <mxGraphModel dx="2298" dy="672" grid="1" gridSize="10" guides="1" tooltips="1" connect="1" arrows="1" fold="1" page="1" pageScale="1" pageWidth="1100" pageHeight="850" background="none" math="0" shadow="0">
      <root>
        <mxCell id="0" />
        <mxCell id="1" parent="0" />
        <mxCell id="21ea969265ad0168-6" value="Master" style="swimlane;html=1;fontStyle=0;childLayout=stackLayout;horizontal=1;startSize=26;fillColor=#e0e0e0;horizontalStack=0;resizeParent=1;resizeLast=0;collapsible=1;marginBottom=0;swimlaneFillColor=#ffffff;align=center;rounded=1;shadow=0;comic=0;labelBackgroundColor=none;strokeWidth=1;fontFamily=Verdana;fontSize=12" parent="1" vertex="1">
          <mxGeometry x="160" y="74" width="160" height="136" as="geometry" />
        </mxCell>
        <mxCell id="aXrP08VzzfI0nprAX5Eo-5" value="LoginController_v2.m" style="text;html=1;strokeColor=none;fillColor=none;spacingLeft=4;spacingRight=4;whiteSpace=wrap;overflow=hidden;rotatable=0;points=[[0,0.5],[1,0.5]];portConstraint=eastwest;" vertex="1" parent="21ea969265ad0168-6">
          <mxGeometry y="26" width="160" height="26" as="geometry" />
        </mxCell>
        <mxCell id="aXrP08VzzfI0nprAX5Eo-6" value="LoginController_v1.h" style="text;html=1;strokeColor=none;fillColor=none;spacingLeft=4;spacingRight=4;whiteSpace=wrap;overflow=hidden;rotatable=0;points=[[0,0.5],[1,0.5]];portConstraint=eastwest;" vertex="1" parent="21ea969265ad0168-6">
          <mxGeometry y="52" width="160" height="26" as="geometry" />
        </mxCell>
        <mxCell id="aXrP08VzzfI0nprAX5Eo-7" value="HomeController_v1.m" style="text;html=1;strokeColor=none;fillColor=none;spacingLeft=4;spacingRight=4;whiteSpace=wrap;overflow=hidden;rotatable=0;points=[[0,0.5],[1,0.5]];portConstraint=eastwest;" vertex="1" parent="21ea969265ad0168-6">
          <mxGeometry y="78" width="160" height="26" as="geometry" />
        </mxCell>
        <mxCell id="aXrP08VzzfI0nprAX5Eo-8" value="HomeController_v1.h" style="text;html=1;strokeColor=none;fillColor=none;spacingLeft=4;spacingRight=4;whiteSpace=wrap;overflow=hidden;rotatable=0;points=[[0,0.5],[1,0.5]];portConstraint=eastwest;" vertex="1" parent="21ea969265ad0168-6">
          <mxGeometry y="104" width="160" height="26" as="geometry" />
        </mxCell>
        <mxCell id="21ea969265ad0168-10" value="Preproduction" style="swimlane;html=1;fontStyle=0;childLayout=stackLayout;horizontal=1;startSize=26;fillColor=#e0e0e0;horizontalStack=0;resizeParent=1;resizeLast=0;collapsible=1;marginBottom=0;swimlaneFillColor=#ffffff;align=center;rounded=1;shadow=0;comic=0;labelBackgroundColor=none;strokeWidth=1;fontFamily=Verdana;fontSize=12" parent="1" vertex="1">
          <mxGeometry x="560" y="74" width="160" height="130" as="geometry" />
        </mxCell>
        <mxCell id="21ea969265ad0168-11" value="LoginController_v1.m" style="text;html=1;strokeColor=none;fillColor=none;spacingLeft=4;spacingRight=4;whiteSpace=wrap;overflow=hidden;rotatable=0;points=[[0,0.5],[1,0.5]];portConstraint=eastwest;" parent="21ea969265ad0168-10" vertex="1">
          <mxGeometry y="26" width="160" height="26" as="geometry" />
        </mxCell>
        <mxCell id="21ea969265ad0168-12" value="LoginController_v1.h" style="text;html=1;strokeColor=none;fillColor=none;spacingLeft=4;spacingRight=4;whiteSpace=wrap;overflow=hidden;rotatable=0;points=[[0,0.5],[1,0.5]];portConstraint=eastwest;" parent="21ea969265ad0168-10" vertex="1">
          <mxGeometry y="52" width="160" height="26" as="geometry" />
        </mxCell>
        <mxCell id="21ea969265ad0168-36" style="edgeStyle=orthogonalEdgeStyle;html=1;labelBackgroundColor=none;startFill=0;startSize=8;endFill=1;endSize=8;fontFamily=Verdana;fontSize=12;" parent="1" source="21ea969265ad0168-6" edge="1">
          <mxGeometry relative="1" as="geometry">
            <mxPoint x="240" y="260" as="targetPoint" />
          </mxGeometry>
        </mxCell>
        <mxCell id="21ea969265ad0168-38" style="edgeStyle=orthogonalEdgeStyle;html=1;labelBackgroundColor=none;startFill=0;startSize=8;endFill=1;endSize=8;fontFamily=Verdana;fontSize=12;" parent="1" source="21ea969265ad0168-10" edge="1">
          <mxGeometry relative="1" as="geometry">
            <mxPoint x="640" y="266" as="targetPoint" />
          </mxGeometry>
        </mxCell>
        <mxCell id="aXrP08VzzfI0nprAX5Eo-14" value="Epic_branch" style="swimlane;html=1;fontStyle=0;childLayout=stackLayout;horizontal=1;startSize=26;fillColor=#e0e0e0;horizontalStack=0;resizeParent=1;resizeLast=0;collapsible=1;marginBottom=0;swimlaneFillColor=#ffffff;align=center;rounded=1;shadow=0;comic=0;labelBackgroundColor=none;strokeWidth=1;fontFamily=Verdana;fontSize=12" vertex="1" parent="1">
          <mxGeometry x="560" y="264" width="160" height="130" as="geometry" />
        </mxCell>
        <mxCell id="aXrP08VzzfI0nprAX5Eo-15" value="LoginController_v1.m" style="text;html=1;strokeColor=none;fillColor=none;spacingLeft=4;spacingRight=4;whiteSpace=wrap;overflow=hidden;rotatable=0;points=[[0,0.5],[1,0.5]];portConstraint=eastwest;" vertex="1" parent="aXrP08VzzfI0nprAX5Eo-14">
          <mxGeometry y="26" width="160" height="26" as="geometry" />
        </mxCell>
        <mxCell id="aXrP08VzzfI0nprAX5Eo-16" value="LoginController_v1.h" style="text;html=1;strokeColor=none;fillColor=none;spacingLeft=4;spacingRight=4;whiteSpace=wrap;overflow=hidden;rotatable=0;points=[[0,0.5],[1,0.5]];portConstraint=eastwest;" vertex="1" parent="aXrP08VzzfI0nprAX5Eo-14">
          <mxGeometry y="52" width="160" height="26" as="geometry" />
        </mxCell>
        <mxCell id="aXrP08VzzfI0nprAX5Eo-17" value="Master_tmp_user" style="swimlane;html=1;fontStyle=0;childLayout=stackLayout;horizontal=1;startSize=26;fillColor=#e0e0e0;horizontalStack=0;resizeParent=1;resizeLast=0;collapsible=1;marginBottom=0;swimlaneFillColor=#ffffff;align=center;rounded=1;shadow=0;comic=0;labelBackgroundColor=none;strokeWidth=1;fontFamily=Verdana;fontSize=12" vertex="1" parent="1">
          <mxGeometry x="160" y="264" width="160" height="136" as="geometry" />
        </mxCell>
        <mxCell id="aXrP08VzzfI0nprAX5Eo-18" value="&lt;font color=&quot;#ff3333&quot;&gt;LoginController_v2.m&lt;/font&gt;" style="text;html=1;strokeColor=#b85450;fillColor=#f8cecc;spacingLeft=4;spacingRight=4;whiteSpace=wrap;overflow=hidden;rotatable=0;points=[[0,0.5],[1,0.5]];portConstraint=eastwest;" vertex="1" parent="aXrP08VzzfI0nprAX5Eo-17">
          <mxGeometry y="26" width="160" height="26" as="geometry" />
        </mxCell>
        <mxCell id="aXrP08VzzfI0nprAX5Eo-19" value="LoginController_v1.h" style="text;html=1;strokeColor=none;fillColor=none;spacingLeft=4;spacingRight=4;whiteSpace=wrap;overflow=hidden;rotatable=0;points=[[0,0.5],[1,0.5]];portConstraint=eastwest;" vertex="1" parent="aXrP08VzzfI0nprAX5Eo-17">
          <mxGeometry y="52" width="160" height="26" as="geometry" />
        </mxCell>
        <mxCell id="aXrP08VzzfI0nprAX5Eo-20" value="HomeController_v1.m" style="text;html=1;strokeColor=none;fillColor=none;spacingLeft=4;spacingRight=4;whiteSpace=wrap;overflow=hidden;rotatable=0;points=[[0,0.5],[1,0.5]];portConstraint=eastwest;" vertex="1" parent="aXrP08VzzfI0nprAX5Eo-17">
          <mxGeometry y="78" width="160" height="26" as="geometry" />
        </mxCell>
        <mxCell id="aXrP08VzzfI0nprAX5Eo-21" value="HomeController_v1.h" style="text;html=1;strokeColor=none;fillColor=none;spacingLeft=4;spacingRight=4;whiteSpace=wrap;overflow=hidden;rotatable=0;points=[[0,0.5],[1,0.5]];portConstraint=eastwest;" vertex="1" parent="aXrP08VzzfI0nprAX5Eo-17">
          <mxGeometry y="104" width="160" height="26" as="geometry" />
        </mxCell>
        <mxCell id="aXrP08VzzfI0nprAX5Eo-22" style="edgeStyle=orthogonalEdgeStyle;html=1;labelBackgroundColor=none;startFill=0;startSize=8;endFill=1;endSize=8;fontFamily=Verdana;fontSize=12;entryX=1;entryY=0.5;entryDx=0;entryDy=0;" edge="1" parent="1" target="aXrP08VzzfI0nprAX5Eo-21">
          <mxGeometry relative="1" as="geometry">
            <mxPoint x="560" y="380" as="sourcePoint" />
            <mxPoint x="250" y="270" as="targetPoint" />
          </mxGeometry>
        </mxCell>
        <mxCell id="aXrP08VzzfI0nprAX5Eo-26" style="edgeStyle=orthogonalEdgeStyle;rounded=0;orthogonalLoop=1;jettySize=auto;html=1;entryX=0;entryY=0.5;entryDx=0;entryDy=0;fontColor=#FF3333;" edge="1" parent="1" source="aXrP08VzzfI0nprAX5Eo-23" target="aXrP08VzzfI0nprAX5Eo-18">
          <mxGeometry relative="1" as="geometry" />
        </mxCell>
        <mxCell id="aXrP08VzzfI0nprAX5Eo-23" value="There is a conflict.&amp;nbsp;&lt;br&gt;Need to fix it before merge" style="ellipse;shape=cloud;whiteSpace=wrap;html=1;fontColor=#FF3333;" vertex="1" parent="1">
          <mxGeometry x="-70" y="150" width="220" height="128" as="geometry" />
        </mxCell>
        <mxCell id="aXrP08VzzfI0nprAX5Eo-31" style="edgeStyle=orthogonalEdgeStyle;rounded=0;orthogonalLoop=1;jettySize=auto;html=1;entryX=0;entryY=0.5;entryDx=0;entryDy=0;fontColor=#FF3333;strokeColor=#FF3333;" edge="1" parent="1" source="aXrP08VzzfI0nprAX5Eo-18" target="aXrP08VzzfI0nprAX5Eo-15">
          <mxGeometry relative="1" as="geometry" />
        </mxCell>
        <mxCell id="aXrP08VzzfI0nprAX5Eo-32" value="&lt;font color=&quot;#000000&quot;&gt;After merging the conflict&lt;br&gt;the version will be v3&lt;br&gt;NOTE: This will have the change&lt;br&gt;of v2 file. &lt;br&gt;&lt;span style=&quot;white-space: pre;&quot;&gt;	&lt;/span&gt;NOT SUPPOSE to go on&lt;br&gt;&amp;nbsp;preproduction&lt;br&gt;&lt;/font&gt;" style="ellipse;shape=cloud;whiteSpace=wrap;html=1;fontColor=#FF3333;" vertex="1" parent="1">
          <mxGeometry x="410" y="570" width="240" height="160" as="geometry" />
        </mxCell>
        <mxCell id="aXrP08VzzfI0nprAX5Eo-38" style="edgeStyle=orthogonalEdgeStyle;rounded=0;orthogonalLoop=1;jettySize=auto;html=1;strokeColor=#000000;fontColor=#000000;" edge="1" parent="1" source="aXrP08VzzfI0nprAX5Eo-33">
          <mxGeometry relative="1" as="geometry">
            <mxPoint x="900" y="210" as="targetPoint" />
          </mxGeometry>
        </mxCell>
        <mxCell id="aXrP08VzzfI0nprAX5Eo-44" style="edgeStyle=orthogonalEdgeStyle;rounded=0;orthogonalLoop=1;jettySize=auto;html=1;exitX=0;exitY=0.75;exitDx=0;exitDy=0;strokeColor=#000000;fontColor=#000000;" edge="1" parent="1" source="aXrP08VzzfI0nprAX5Eo-33" target="aXrP08VzzfI0nprAX5Eo-32">
          <mxGeometry relative="1" as="geometry">
            <mxPoint x="489.99999999999955" y="540" as="targetPoint" />
          </mxGeometry>
        </mxCell>
        <mxCell id="aXrP08VzzfI0nprAX5Eo-33" value="Epic_branch" style="swimlane;html=1;fontStyle=0;childLayout=stackLayout;horizontal=1;startSize=26;horizontalStack=0;resizeParent=1;resizeLast=0;collapsible=1;marginBottom=0;swimlaneFillColor=#ffffff;align=center;rounded=1;shadow=0;comic=0;labelBackgroundColor=none;strokeWidth=1;fontFamily=Verdana;fontSize=12;fillColor=#ffe6cc;strokeColor=#d79b00;" vertex="1" parent="1">
          <mxGeometry x="560" y="410" width="160" height="130" as="geometry" />
        </mxCell>
        <mxCell id="aXrP08VzzfI0nprAX5Eo-34" value="LoginController_v3.m" style="text;html=1;strokeColor=#82b366;fillColor=#d5e8d4;spacingLeft=4;spacingRight=4;whiteSpace=wrap;overflow=hidden;rotatable=0;points=[[0,0.5],[1,0.5]];portConstraint=eastwest;" vertex="1" parent="aXrP08VzzfI0nprAX5Eo-33">
          <mxGeometry y="26" width="160" height="26" as="geometry" />
        </mxCell>
        <mxCell id="aXrP08VzzfI0nprAX5Eo-35" value="LoginController_v1.h" style="text;html=1;strokeColor=none;fillColor=none;spacingLeft=4;spacingRight=4;whiteSpace=wrap;overflow=hidden;rotatable=0;points=[[0,0.5],[1,0.5]];portConstraint=eastwest;" vertex="1" parent="aXrP08VzzfI0nprAX5Eo-33">
          <mxGeometry y="52" width="160" height="26" as="geometry" />
        </mxCell>
        <mxCell id="aXrP08VzzfI0nprAX5Eo-37" style="edgeStyle=orthogonalEdgeStyle;rounded=0;orthogonalLoop=1;jettySize=auto;html=1;entryX=0.5;entryY=1;entryDx=0;entryDy=0;strokeColor=#000000;fontColor=#000000;" edge="1" parent="1" source="aXrP08VzzfI0nprAX5Eo-35" target="aXrP08VzzfI0nprAX5Eo-17">
          <mxGeometry relative="1" as="geometry" />
        </mxCell>
        <mxCell id="aXrP08VzzfI0nprAX5Eo-39" value="Preproduction_tmp_user" style="swimlane;html=1;fontStyle=0;childLayout=stackLayout;horizontal=1;startSize=26;fillColor=#e0e0e0;horizontalStack=0;resizeParent=1;resizeLast=0;collapsible=1;marginBottom=0;swimlaneFillColor=#ffffff;align=center;rounded=1;shadow=0;comic=0;labelBackgroundColor=none;strokeWidth=1;fontFamily=Verdana;fontSize=12" vertex="1" parent="1">
          <mxGeometry x="810" y="74" width="160" height="130" as="geometry" />
        </mxCell>
        <mxCell id="aXrP08VzzfI0nprAX5Eo-40" value="LoginController_v1.m" style="text;html=1;strokeColor=none;fillColor=none;spacingLeft=4;spacingRight=4;whiteSpace=wrap;overflow=hidden;rotatable=0;points=[[0,0.5],[1,0.5]];portConstraint=eastwest;" vertex="1" parent="aXrP08VzzfI0nprAX5Eo-39">
          <mxGeometry y="26" width="160" height="26" as="geometry" />
        </mxCell>
        <mxCell id="aXrP08VzzfI0nprAX5Eo-41" value="LoginController_v1.h" style="text;html=1;strokeColor=none;fillColor=none;spacingLeft=4;spacingRight=4;whiteSpace=wrap;overflow=hidden;rotatable=0;points=[[0,0.5],[1,0.5]];portConstraint=eastwest;" vertex="1" parent="aXrP08VzzfI0nprAX5Eo-39">
          <mxGeometry y="52" width="160" height="26" as="geometry" />
        </mxCell>
        <mxCell id="aXrP08VzzfI0nprAX5Eo-42" value="LoginController_v3.m" style="text;html=1;strokeColor=#82b366;fillColor=#d5e8d4;spacingLeft=4;spacingRight=4;whiteSpace=wrap;overflow=hidden;rotatable=0;points=[[0,0.5],[1,0.5]];portConstraint=eastwest;" vertex="1" parent="1">
          <mxGeometry x="820" y="230" width="160" height="26" as="geometry" />
        </mxCell>
        <mxCell id="aXrP08VzzfI0nprAX5Eo-43" style="edgeStyle=orthogonalEdgeStyle;rounded=0;orthogonalLoop=1;jettySize=auto;html=1;entryX=1;entryY=0.5;entryDx=0;entryDy=0;strokeColor=#000000;fontColor=#000000;" edge="1" parent="1" source="aXrP08VzzfI0nprAX5Eo-41" target="21ea969265ad0168-12">
          <mxGeometry relative="1" as="geometry" />
        </mxCell>
      </root>
    </mxGraphModel>
  </diagram>
</mxfile>
